<?xml version="1.0" encoding="utf-8"?>
<!-- Generator: Adobe Illustrator 26.5.0, SVG Export Plug-In . SVG Version: 6.00 Build 0)  -->
<svg version="1.1" id="Layer_1" xmlns="http://www.w3.org/2000/svg" xmlns:xlink="http://www.w3.org/1999/xlink" x="0px" y="0px"
	 viewBox="0 0 250 250" style="enable-background:new 0 0 250 250;" xml:space="preserve">
<style type="text/css">
	.st0{fill:#FFFFFF;}
	.st1{fill:none;stroke:#FFFFFF;stroke-miterlimit:10;}
	.st2{stroke:#FFFFFF;stroke-miterlimit:10;}
	.st3{font-family:'HelveticaNeue-UltraLight';}
	.st4{font-size:17px;}
</style>
<g>
	<path class="st0" d="M124,43c45.8,0,83,37.2,83,83s-37.2,83-83,83s-83-37.2-83-83S78.2,43,124,43 M124,42c-46.4,0-84,37.6-84,84
		s37.6,84,84,84s84-37.6,84-84S170.4,42,124,42L124,42z"/>
</g>
<g>
	<path class="st0" d="M123.5,47c43.6,0,79,35.4,79,79s-35.4,79-79,79s-79-35.4-79-79S79.9,47,123.5,47 M123.5,46
		c-44.2,0-80,35.8-80,80s35.8,80,80,80s80-35.8,80-80S167.7,46,123.5,46L123.5,46z"/>
</g>
<g>
	<path class="st0" d="M123.6,49.6l48,138.4h-96L123.6,49.6 M123.6,46.5L74.2,189H173L123.6,46.5L123.6,46.5z"/>
</g>
<line class="st1" x1="102.5" y1="188.5" x2="135.5" y2="82.5"/>
<line class="st1" x1="118.5" y1="138.5" x2="154.5" y2="137.5"/>
<text transform="matrix(1 0 0 1 70.4142 226.5047)" class="st2 st3 st4">OMAR AHMAD</text>
</svg>
